<svg xmlns="http://www.w3.org/2000/svg" width="1000" height="720" viewBox="0 0 1000 720" role="img" aria-label="합성 증거 002 · 위치 도면">
  <defs>
    <linearGradient id="paper" x1="0" x2="1" y1="0" y2="1">
      <stop offset="0" stop-color="#ffffff"/>
      <stop offset="1" stop-color="#edf4ff"/>
    </linearGradient>
    <filter id="shadow" x="-20%" y="-20%" width="140%" height="140%">
      <feDropShadow dx="0" dy="18" stdDeviation="18" flood-color="#062d62" flood-opacity=".14"/>
    </filter>
    <style>
      .bg{fill:#f6f9fd}
      .card{fill:url(#paper);stroke:#dbe6f3;filter:url(#shadow)}
      .navy{fill:#062d62}
      .gold{fill:#c8a66a}
      .muted{fill:#6d7e95}
      .line{stroke:#9fb1c7;stroke-width:2}
      .strong{font:700 30px "Malgun Gothic","Apple SD Gothic Neo",sans-serif}
      .body{font:500 22px "Malgun Gothic","Apple SD Gothic Neo",sans-serif}
      .small{font:500 17px "Malgun Gothic","Apple SD Gothic Neo",sans-serif}
      .mono{font:600 19px Consolas,"Malgun Gothic",monospace}
    </style>
  </defs>
  <rect class="bg" width="1000" height="720"/>
  <rect class="card" x="34" y="30" width="932" height="660" rx="30"/>
  <text class="strong navy" x="68" y="82">합성 증거 002 · 위치 도면</text>
  
  <text class="small muted" x="68" y="118">학교 2층 복도와 계단 사이 동선 · 좌표는 시연용</text>
  <rect x="108" y="166" width="784" height="428" rx="22" fill="#ffffff" stroke="#d6e2f0"/>
  <rect x="164" y="232" width="330" height="90" rx="14" fill="#edf4ff" stroke="#b8c9de"/>
  <text class="body navy" x="230" y="287">2층 복도</text>
  <rect x="548" y="218" width="220" height="240" rx="18" fill="#fff6e2" stroke="#d4b978"/>
  <text class="body navy" x="610" y="348">계단</text>
  <path d="M332 318 C390 370, 502 382, 588 332" fill="none" stroke="#062d62" stroke-width="8" stroke-linecap="round"/>
  <polygon points="588,332 552,323 572,357" fill="#062d62"/>
  <circle cx="328" cy="318" r="20" fill="#c8a66a"/>
  <text class="small navy" x="184" y="384">14:20 B 발언 위치</text>
  <circle cx="594" cy="332" r="20" fill="#d95454"/>
  <text class="small navy" x="560" y="508">14:25 밀침·촬영 주장 위치</text>
  <rect x="144" y="620" width="712" height="36" rx="18" fill="#edf4ff"/>
  <text class="small muted" x="176" y="644">확인 필요: CCTV 사각 여부, 복도 목격자 D 위치, 교사 도착 시각</text>
  
</svg>
